<svg width="420" height="240" viewBox="0 0 420 240" fill="none" xmlns="http://www.w3.org/2000/svg">
  <defs>
    <linearGradient id="heroHomeTicket" x1="208" y1="30" x2="334" y2="152" gradientUnits="userSpaceOnUse">
      <stop stop-color="#FFD874"/>
      <stop offset="1" stop-color="#FFB62D"/>
    </linearGradient>
    <linearGradient id="heroHomeVoucher" x1="138" y1="116" x2="224" y2="166" gradientUnits="userSpaceOnUse">
      <stop stop-color="#FF9452"/>
      <stop offset="1" stop-color="#FF6C2F"/>
    </linearGradient>
  </defs>
  <ellipse cx="248" cy="194" rx="96" ry="15" fill="#E65A49" fill-opacity="0.12"/>
  <g transform="translate(198 36) rotate(15 72 54)">
    <path d="M0 24C0 10.745 10.745 0 24 0H124C137.255 0 148 10.745 148 24V84C148 97.255 137.255 108 124 108H24C10.745 108 0 97.255 0 84V24Z" fill="url(#heroHomeTicket)"/>
    <path d="M78 24H96V45H117V63H96V84H78V63H57V45H78V24Z" fill="#FFF4D5"/>
    <path d="M127 0H148V108H127C121.477 108 117 103.523 117 98V10C117 4.477 121.477 0 127 0Z" fill="#FFC44B" fill-opacity="0.9"/>
    <path d="M127 16L132 22L127 28" stroke="#FFE6A0" stroke-width="3" stroke-linecap="round" stroke-linejoin="round"/>
    <path d="M127 80L132 86L127 92" stroke="#FFE6A0" stroke-width="3" stroke-linecap="round" stroke-linejoin="round"/>
  </g>
  <g transform="translate(154 118) rotate(-10 48 30)">
    <rect x="0" y="0" width="96" height="60" rx="20" fill="url(#heroHomeVoucher)"/>
    <path d="M40 15H56V24H66V36H56V45H40V36H30V24H40V15Z" fill="#FFF4DA"/>
  </g>
  <path d="M138 62C146 48 160 46 171 56C176 61 177 69 173 75C167 84 155 86 145 81C137 77 133 69 138 62Z" fill="#FFA4DD"/>
  <path d="M328 138C336 122 352 120 364 130C372 136 373 147 367 155C359 166 343 167 332 159C324 153 322 145 328 138Z" fill="#FFD9F3"/>
  <path d="M312 150C300 138 287 139 278 150C270 160 271 175 282 182C295 190 311 185 319 172C323 165 321 158 312 150Z" fill="#5DB38E"/>
  <path d="M283 171C296 164 307 166 314 178" stroke="#7BC9A8" stroke-width="6" stroke-linecap="round"/>
  <circle cx="170" cy="76" r="6" fill="#FFE5A3"/>
  <circle cx="336" cy="126" r="7" fill="#FFF1BB"/>
</svg>
